<svg version="1.1" xmlns="http://www.w3.org/2000/svg" viewBox="0 0 137.18668398046634 137.18668398046634" width="274.3733679609327" height="274.3733679609327">
  <!-- Circular background -->
  <circle cx="68.59334199023317" cy="68.59334199023317" r="68.59334199023317" fill="#ffffff" />
  <g transform="translate(29.13672741053881 18.321981424148618) rotate(89.07143961778654 33.07987602871634 51.68730766411535)">
    <text x="33.07987602871637" y="72.85842888333701" font-family="Excalifont, Xiaolai, Segoe UI Emoji" font-size="82.69969226258458px" fill="#6741d9" text-anchor="middle" style="white-space: pre;" direction="ltr" dominant-baseline="alphabetic">ib</text>
  </g>
  <g stroke-linecap="round" transform="translate(12.186683980466341 10.000000000000028) rotate(0 57.5 57.499999999999986)">
    <path d="M42.52 3.72 C50.14 0.4, 58.42 0.32, 67.17 1.97 C75.92 3.61, 88.18 8.1, 95.02 13.6 C101.87 19.1, 104.91 26.72, 108.22 34.97 C111.53 43.22, 115.23 54.33, 114.89 63.1 C114.56 71.88, 110.89 80.63, 106.23 87.63 C101.57 94.62, 94.81 100.5, 86.93 105.05 C79.05 109.61, 67.67 114.16, 58.96 114.93 C50.25 115.7, 42.55 113.2, 34.67 109.69 C26.8 106.18, 17.2 100.7, 11.68 93.86 C6.17 87.02, 3.36 77.32, 1.58 68.65 C-0.2 59.97, -1.61 50.72, 1 41.82 C3.61 32.91, 9.38 22.13, 17.23 15.21 C25.08 8.3, 41.83 2.37, 48.09 0.34 C54.35 -1.7, 54.84 2.26, 54.78 2.99 M41.42 1.39 C49.06 -1.49, 56.34 1.96, 64.86 3.48 C73.38 4.99, 85.3 5.07, 92.54 10.47 C99.78 15.86, 104.71 27.1, 108.33 35.85 C111.94 44.6, 114.21 54.21, 114.24 62.98 C114.27 71.75, 112.54 80.82, 108.52 88.49 C104.51 96.15, 98.3 104.27, 90.15 108.97 C82 113.67, 68.95 116.54, 59.61 116.67 C50.28 116.8, 42.15 113.69, 34.13 109.77 C26.11 105.84, 16.7 99.86, 11.48 93.1 C6.25 86.33, 4.26 78.43, 2.78 69.19 C1.31 59.95, 0.32 46.66, 2.63 37.65 C4.93 28.64, 10.6 20.7, 16.63 15.12 C22.66 9.54, 34.68 6, 38.78 4.15 C42.89 2.31, 40.46 3.05, 41.28 4.06" stroke="#343a40" stroke-width="4" fill="none"></path>
  </g>
</svg>
